<svg xmlns="http://www.w3.org/2000/svg" xmlns:xlink="http://www.w3.org/1999/xlink" width="1920" height="1080" viewBox="0 0 1920 1080"><defs><linearGradient id="a" x1="0.5" x2="0.5" y2="1" gradientUnits="objectBoundingBox"><stop offset="0" stop-color="#467aaa"/><stop offset="1" stop-color="#1f4e79"/></linearGradient><linearGradient id="b" x1="0.5" x2="0.5" y2="1" gradientUnits="objectBoundingBox"><stop offset="0" stop-color="#fcfcfc"/><stop offset="0.218" stop-color="#d8ecff"/><stop offset="0.615" stop-color="#28547e"/><stop offset="1" stop-color="#1c2d3e"/></linearGradient><linearGradient id="c" x1="0.5" x2="0.5" y2="1" gradientUnits="objectBoundingBox"><stop offset="0" stop-color="#f8f8f8"/><stop offset="1" stop-color="#edf0f2"/></linearGradient><linearGradient id="d" x1="0.5" x2="0.5" y2="1" gradientUnits="objectBoundingBox"><stop offset="0" stop-color="#fff"/><stop offset="1" stop-color="#fff" stop-opacity="0.749"/></linearGradient><clipPath id="k"><rect width="1920" height="1080"/></clipPath></defs><g id="j" clip-path="url(#k)"><rect width="1920" height="1080" fill="#1c2d3e"/><path d="M0,0H1920a0,0,0,0,1,0,0V195a45,45,0,0,1-45,45H45A45,45,0,0,1,0,195V0A0,0,0,0,1,0,0Z" fill="url(#a)"/><rect width="1860" height="980" rx="25" transform="translate(30 80)" fill="url(#b)"/><rect width="1780" height="980" rx="25" transform="translate(110 80)" fill="url(#c)"/><rect width="845" height="265" rx="10" transform="translate(1025 385)" fill="url(#d)"/><rect width="580" height="550" rx="10" transform="translate(425 100)" fill="url(#d)"/><rect width="580" height="376" rx="10" transform="translate(425 670)" fill="url(#d)"/><rect width="412" height="376" rx="10" transform="translate(1458 670)" fill="url(#d)"/><rect width="412" height="376" rx="10" transform="translate(1025 670)" fill="url(#d)"/><path d="M1080,37H255a10.011,10.011,0,0,1-10-10V-218a10.011,10.011,0,0,1,10-10H620a10.011,10.011,0,0,1,10,10v21a10.011,10.011,0,0,0,10,10h440a10.011,10.011,0,0,1,10,10V27A10.011,10.011,0,0,1,1080,37Z" transform="translate(780 328)" fill="url(#d)"/></g></svg>