<svg xmlns="http://www.w3.org/2000/svg" xmlns:xlink="http://www.w3.org/1999/xlink" width="60" height="60" viewBox="0 0 60 60"><defs><clipPath id="b"><rect width="60" height="60"/></clipPath></defs><g id="a" clip-path="url(#b)"><g transform="translate(223 -3137.665)"><rect width="30" height="20" transform="translate(-208 3162)" fill="#fff"/><g transform="translate(-210 3151.665)"><path d="M30.722,0A4.515,4.515,0,0,1,34.4,3.686v5.63H.15c.005-1.716-.133-3.723,0-5.4A4.451,4.451,0,0,1,3.83,0H30.722Z" transform="translate(-0.092)" fill="#bee8fb"/><path d="M3.895,1A3.156,3.156,0,0,0,2.066,2.018,3.387,3.387,0,0,0,1.145,4c-.082,1.048-.052,2.268-.023,3.447.007.289.014.582.02.873H33.4V3.785A3.506,3.506,0,0,0,30.623,1H3.895M3.83,0H30.722A4.515,4.515,0,0,1,34.4,3.686v5.63H.15c.005-1.716-.133-3.723,0-5.4A4.451,4.451,0,0,1,3.83,0ZM30.722,0h0Z" transform="translate(-0.092)" fill="#6d8fb0"/><path d="M34.945,104.25v18.365a4.414,4.414,0,0,1-3.78,3.753l-26.626,0A4.345,4.345,0,0,1,.7,122.447c.013-6.065-.021-12.132,0-18.2H34.946ZM8.521,107.065H3.571v3.619h4.95Zm2.876,3.619h4.917l.1-.1v-3.418l-.1-.1H11.4v3.619Zm12.844-3.619H19.324l-.1.1v3.418l.1.1h4.917v-3.619Zm7.827,0h-4.95v3.619h4.95ZM8.521,113.5H3.571v3.619h4.95Zm2.876,3.619h4.917l.1-.1V113.6l-.1-.1H11.4v3.619ZM24.241,113.5H19.324l-.1.1v3.418l.1.1h4.917V113.5Zm7.827,0h-4.95v3.619h4.95ZM8.521,119.934H3.571v2.513c0,.416.828,1.106,1.238,1.106H8.521Zm2.876,3.619h4.917l.1-.1v-3.418l-.1-.1H11.4v3.619Zm12.844-3.619H19.324l-.1.1v3.418l.1.1h4.917v-3.619Zm7.827,0h-4.95v3.619H30.83a2.6,2.6,0,0,0,.736-.335,1.721,1.721,0,0,0,.5-.77v-2.513Z" transform="translate(-0.635 -94.933)" fill="#30577c"/></g></g></g></svg>