<svg xmlns="http://www.w3.org/2000/svg" xmlns:xlink="http://www.w3.org/1999/xlink" width="60" height="60" viewBox="0 0 60 60"><defs><clipPath id="b"><rect width="60" height="60"/></clipPath></defs><g id="a" clip-path="url(#b)"><g transform="translate(9 10.999)"><path d="M0,77.74c.275-.58.582-1.149.895-1.709,1.789-3.211,3.683-6.925,5.652-9.974A2.037,2.037,0,0,1,8.8,64.927a13.357,13.357,0,0,1,3.176,1.618,2.376,2.376,0,0,1,.589,2.509l1.88.571c.489-.209.881-.582,1.427-.771a25.879,25.879,0,0,1,7.689-.583c1.142.261,2.36.91,3.471,1.24.945.282,1.777-.2,2.692-.45.095-.136-.109-.493-.131-.706a2.137,2.137,0,0,1,.8-1.847,15.992,15.992,0,0,1,3.044-1.586,2.182,2.182,0,0,1,2.013.633,22.443,22.443,0,0,1,1.519,2.615c.109.364.1,1.017-.266,1.217a1.072,1.072,0,0,1-1.077-.2c-.5-.532-.894-1.836-1.382-2.421-.089-.107-.166-.237-.324-.251a26.589,26.589,0,0,0-2.469,1.3l-.187.36,6.6,11.588a.437.437,0,0,0,.279.042,24.209,24.209,0,0,0,2.311-1.252c.25-.2.244-.321.128-.6-.3-.71-1.273-1.9-1.441-2.528a.966.966,0,0,1,.292-1.078,1.02,1.02,0,0,1,1.075.124c.723,1.407,2.783,3.717,1.244,5.211a13.744,13.744,0,0,1-3.611,1.852,2.418,2.418,0,0,1-2.136-1.476,4.906,4.906,0,0,0-1.409.987c-.1.215.433.934.5,1.315a2.789,2.789,0,0,1-2.442,3.394,2.683,2.683,0,0,1-2.395,3.062A2.863,2.863,0,0,1,26.542,91.8a2.824,2.824,0,0,1-3,2.209,5.438,5.438,0,0,1-2.408-1.378c-1.036.725-2.19,2.149-3.492,2.3a2.853,2.853,0,0,1-3.182-3.043,2.81,2.81,0,0,1-2.393-3.063,2.841,2.841,0,0,1-2.48-3.059,2.775,2.775,0,0,1-2.163-3.946c.071-.179.317-.445.33-.575.04-.4-1.108-1.009-1.431-1.178a2.375,2.375,0,0,1-2.292,1.462A16.649,16.649,0,0,1,.667,79.759,4.14,4.14,0,0,1,0,78.73v-.992ZM8.241,66.592,1.671,78.051l0,.293,2.446,1.448A.48.48,0,0,0,4.7,79.5l6.281-11.165c.051-.252.053-.39-.15-.557a17.474,17.474,0,0,0-2.087-1.137.773.773,0,0,0-.5-.052Zm22.5,4.051a15.829,15.829,0,0,0-2.613.626c-1.524.193-3.443-1.017-4.964-1.361a21.3,21.3,0,0,0-5.1.224c-1.37.173-3.213.321-1.82,2.068,1.319,1.653,3.755.461,5.539.579,2.1.139,3.563,1.33,5.194,2.494,2.128,1.519,4.125,3.215,6.216,4.784a7.825,7.825,0,0,1,1.932-1.42V78.46l-4.384-7.819Zm-16.706.584-2.379-.645L7.2,78.643a7.289,7.289,0,0,1,1.937,1.415c.184,0,2.177-1.786,2.684-2.031a2.843,2.843,0,0,1,3.968,1.829A2.843,2.843,0,0,1,19.554,83.2c-.095.366-.3.636-.37.989,1.619.691,1.859,2.688,1.072,4.136A2.535,2.535,0,0,1,21.7,90.058a6.686,6.686,0,0,0,.2,1.04c.052.072,1.289,1.016,1.407,1.074a1.1,1.1,0,0,0,1.6-1.271c-.239-.907-2.255-1.428-1.851-2.459A.849.849,0,0,1,24.336,88c.8.432,1.975,1.87,2.737,2.139a1.118,1.118,0,0,0,1.4-1.568c-.4-.7-2.186-1.613-2.765-2.279a.855.855,0,0,1,.915-1.41c.638.192,1.99,1.691,2.7,2.1a1.113,1.113,0,0,0,1.392-1.723c-.589-.645-1.86-1.275-2.391-1.907a.847.847,0,0,1,.95-1.362c.842.509,1.589,1.386,2.416,1.883a1.111,1.111,0,0,0,1.647-.292c.5-.951-.266-1.421-.887-1.957-1.249-1.077-2.7-2.171-4.016-3.176-1.4-1.07-4.3-3.455-5.89-3.866s-2.911.278-4.476.177a4.136,4.136,0,0,1-4.03-3.535ZM12.628,79.5a34.344,34.344,0,0,0-2.747,2.132c-.35.3-.935.691-1.016,1.133a1.112,1.112,0,0,0,1.528,1.28,31.045,31.045,0,0,0,3.121-2.418c.414-.383.678-.553.623-1.2a1.094,1.094,0,0,0-1.51-.931ZM16.6,81.4a2.562,2.562,0,0,0-.76.48c-1.493,1.086-2.88,2.38-4.345,3.509a1.118,1.118,0,0,0,1.564,1.564l4.719-3.8a1.143,1.143,0,0,0-1.18-1.759ZM14,88.35a1.128,1.128,0,0,0,1.259,1.8l3.55-2.815a1.121,1.121,0,0,0-1.425-1.672L14,88.35Zm4.58,1.4a13.328,13.328,0,0,0-2.309,1.906,1.123,1.123,0,0,0,1.615,1.45,14.478,14.478,0,0,0,1.664-1.312A1.238,1.238,0,0,0,20.082,91c.144-.99-.559-1.5-1.5-1.255Z" transform="translate(0 -57.731)" fill="#30577c"/><path d="M288.548,82.373l.909,1.736c-.9.408-.1,2.03.909,1.488l.909,1.736a.962.962,0,0,0-.292,1.078c.168.628,1.143,1.818,1.441,2.528.116.276.12.393-.128.6a24.6,24.6,0,0,1-2.311,1.252.429.429,0,0,1-.279-.042l-6.6-11.588.187-.36a26.591,26.591,0,0,1,2.469-1.3c.158.014.234.145.324.251.488.585.88,1.889,1.382,2.421a1.073,1.073,0,0,0,1.077.2Z" transform="translate(-251.841 -70.715)" fill="#bee8fb"/><path d="M114.4,22.311a1.006,1.006,0,0,1,.934.189c.574,1.156,1.782,2.454,2.277,3.593.446,1.026-.442,1.741-1.32,1.072-.656-1.18-1.54-2.256-2.181-3.44-.222-.411-.392-.607-.1-1.059A1.437,1.437,0,0,1,114.4,22.311Z" transform="translate(-101.284 -19.811)" fill="#30577c"/><path d="M236.823,22.35c.822-.189,1.315.417,1.035,1.2l-2.3,3.651a.847.847,0,0,1-1.375-.962c.806-1,1.472-2.747,2.3-3.655a.618.618,0,0,1,.343-.235Z" transform="translate(-208.241 -19.85)" fill="#30577c"/><path d="M184.143.02a.826.826,0,0,1,1.015.765,29.7,29.7,0,0,1-.008,4.378.83.83,0,0,1-1.65-.075A29.7,29.7,0,0,1,183.508.71a.827.827,0,0,1,.635-.69Z" transform="translate(-163.165 0)" fill="#30577c"/><path d="M338.352,121.826c-1.011.541-1.807-1.081-.909-1.488.8-.363,1.423.16,1.223,1.016A1.7,1.7,0,0,1,338.352,121.826Z" transform="translate(-299.825 -106.942)" fill="#30577c"/><path d="M72.017,117.013a4.135,4.135,0,0,0,4.03,3.535c1.565.1,2.858-.6,4.476-.177s4.488,2.8,5.89,3.866c1.318,1.005,2.767,2.1,4.016,3.177.621.535,1.389,1.006.887,1.957a1.111,1.111,0,0,1-1.647.292c-.826-.5-1.574-1.374-2.415-1.883a.847.847,0,0,0-.95,1.362c.531.633,1.8,1.262,2.391,1.907a1.113,1.113,0,0,1-1.392,1.723c-.707-.406-2.058-1.905-2.7-2.1a.855.855,0,0,0-.915,1.41c.579.667,2.368,1.575,2.765,2.279a1.118,1.118,0,0,1-1.4,1.568c-.762-.271-1.934-1.709-2.737-2.139a.849.849,0,0,0-1.276.437c-.4,1.03,1.613,1.552,1.851,2.459a1.1,1.1,0,0,1-1.6,1.271c-.118-.057-1.355-1-1.407-1.074a6.687,6.687,0,0,1-.2-1.04,2.537,2.537,0,0,0-1.447-1.736c.786-1.448.548-3.445-1.072-4.136.072-.352.275-.623.37-.989a2.843,2.843,0,0,0-3.765-3.341,2.842,2.842,0,0,0-3.968-1.829c-.507.246-2.5,2.03-2.684,2.031a7.265,7.265,0,0,0-1.937-1.415l4.458-8.061,2.379.645Z" transform="translate(-57.981 -103.516)" fill="#bee8fb"/><path d="M157.574,110.222l4.381,7.819v.176a7.84,7.84,0,0,0-1.931,1.42c-2.091-1.568-4.088-3.264-6.216-4.784-1.631-1.165-3.095-2.356-5.194-2.494-1.784-.118-4.22,1.075-5.539-.579-1.393-1.746.45-1.894,1.82-2.068a21.3,21.3,0,0,1,5.1-.224c1.52.343,3.438,1.554,4.964,1.361a15.718,15.718,0,0,1,2.613-.626Z" transform="translate(-126.832 -97.31)" fill="#fefefe"/><path d="M21.664,80.024a.773.773,0,0,1,.5.052,17.56,17.56,0,0,1,2.087,1.137c.2.167.2.3.15.557L18.121,92.934a.478.478,0,0,1-.584.288L15.09,91.775l0-.293,6.569-11.459Z" transform="translate(-13.423 -71.163)" fill="#fefefe"/><path d="M107.242,214.045a1.143,1.143,0,0,1,1.18,1.759L103.7,219.6a1.118,1.118,0,0,1-1.564-1.564c1.465-1.129,2.852-2.423,4.345-3.509a2.539,2.539,0,0,1,.76-.48Z" transform="translate(-90.646 -190.379)" fill="#fdfdfe"/><path d="M83.849,196.615a1.093,1.093,0,0,1,1.51.931c.055.643-.194.8-.623,1.2a30.565,30.565,0,0,1-3.121,2.418,1.111,1.111,0,0,1-1.527-1.28c.081-.443.675-.842,1.016-1.133a34.619,34.619,0,0,1,2.747-2.132Z" transform="translate(-71.221 -174.849)" fill="#fdfdfd"/><path d="M124.529,254.551l3.385-2.692a1.121,1.121,0,0,1,1.425,1.672l-3.55,2.815a1.128,1.128,0,0,1-1.259-1.8Z" transform="translate(-110.528 -223.932)" fill="#fdfdfd"/><path d="M148.534,289.385c.943-.243,1.646.265,1.5,1.255a1.238,1.238,0,0,1-.531.791,14.6,14.6,0,0,1-1.664,1.312,1.123,1.123,0,0,1-1.615-1.45,13.37,13.37,0,0,1,2.309-1.906Z" transform="translate(-129.954 -257.369)" fill="#fdfdfd"/></g></g></svg>