<svg xmlns="http://www.w3.org/2000/svg" xmlns:xlink="http://www.w3.org/1999/xlink" width="60" height="60" viewBox="0 0 60 60"><defs><clipPath id="b"><rect width="60" height="60"/></clipPath></defs><g id="a" clip-path="url(#b)"><g transform="translate(636.28 -3086.76)"><path d="M35.567,15.72v5.31A2.4,2.4,0,0,0,37.437,22.9h5.32v6.226a10.058,10.058,0,0,0-2.993-1.371A9.559,9.559,0,0,0,28.229,39.888H19.166c-.611,0-.977,1.31,0,1.46l9.669.017a10.346,10.346,0,0,0,3.576,3.754,9.608,9.608,0,0,0,9.645.116l.694.7c-.117,1.144.165,2.627,0,3.729a.731.731,0,0,1-.624.622l-25.57-.03a.687.687,0,0,1-.477-.476V16.231a.855.855,0,0,1,.516-.511H35.565Zm-16.457,3.9a.735.735,0,0,0,.2,1.448H33.329a.739.739,0,0,0,.149-1.467l-14.367.019Zm.075,5.051a.732.732,0,0,0-.014,1.447C20.329,26.276,20.241,24.517,19.185,24.669Zm3.08,0a.746.746,0,0,0-.181,1.392l11.32.058a.731.731,0,0,0,.236-1.411l-11.375-.038Zm-3.009,5.054a.734.734,0,0,0-.16,1.443l7.335.006c.871-.1.865-1.322-.155-1.46Zm-.147,5.126a.731.731,0,0,0,.137,1.441c2.086-.161,4.558.239,6.6.007.9-.1,1.1-1.184.216-1.461l-6.95.013Zm.147,10.108A.734.734,0,0,0,19.1,46.4h6.6c.868-.3.675-1.332-.222-1.454-1.867-.254-4.288.162-6.213.011Zm9.024.071a.721.721,0,0,0-.056,1.342A.721.721,0,1,0,28.281,45.031Z" transform="translate(-637.857 3083.504)" fill="#fefefe"/><path d="M294.75,295.433c.522-.234.885-.873,1.288-1.243.065-.06.082-.129.182-.043l5.649,5.641a1.021,1.021,0,0,1-1.391,1.462l-5.692-5.671-.034-.147Z" transform="translate(-889.262 2832.354)" fill="#cde3f7"/><path d="M234.882,31.564H230.81a1.008,1.008,0,0,1-.55-.549V26.95l4.623,4.614Z" transform="translate(-831.082 3073.373)" fill="#cde3f7"/><path d="M41.875,55.389l14.367-.019a.738.738,0,0,1-.149,1.467H42.078A.735.735,0,0,1,41.875,55.389Z" transform="translate(-660.622 3047.733)" fill="#6d8fb0"/><path d="M73.914,107.2l11.375.038a.731.731,0,0,1-.236,1.411l-11.32-.058a.746.746,0,0,1,.181-1.392Z" transform="translate(-689.506 3000.974)" fill="#6d8fb0"/><path d="M42.022,158.771l7.02-.011c1.019.139,1.025,1.358.155,1.46l-7.335-.006A.734.734,0,0,1,42.022,158.771Z" transform="translate(-660.623 2954.458)" fill="#6d8fb0"/><path d="M41.87,211.143l6.95-.013c.882.277.684,1.358-.216,1.461-2.04.232-4.511-.167-6.6-.007a.731.731,0,0,1-.137-1.441Z" transform="translate(-660.617 2907.212)" fill="#6d8fb0"/><path d="M42.031,313.692c1.924.151,4.347-.265,6.213-.011.9.122,1.091,1.158.222,1.454H41.872a.734.734,0,0,1,.16-1.443Z" transform="translate(-660.632 2814.771)" fill="#6d8fb0"/><path d="M42.012,107.1c1.056-.153,1.144,1.607-.014,1.447A.732.732,0,0,1,42.012,107.1Z" transform="translate(-660.684 3001.07)" fill="#6d8fb0"/><path d="M136.286,315.008a.724.724,0,1,1-.056,1.342A.724.724,0,0,1,136.286,315.008Z" transform="translate(-745.862 2813.526)" fill="#6d8fb0"/><path d="M38.22,35.033V36.5a2.806,2.806,0,0,1-1.981,1.757h-.807a2.86,2.86,0,0,1-1.175-.549L30.368,33.86v2.526a5.09,5.09,0,0,1-.229.65,2.353,2.353,0,0,1-1.606,1.218H2.557A2.288,2.288,0,0,1,.724,36.239l0-33.325A2.2,2.2,0,0,1,2.741.76L22.665.793l.367.22c2.4,2.479,4.979,4.822,7.28,7.382l.058,8.438A9.659,9.659,0,0,1,32.333,27a10.83,10.83,0,0,0-.56,1.247l5.971,5.983.476.806ZM21.709,2.224H2.741a.855.855,0,0,0-.516.511V36.28a.689.689,0,0,0,.477.476l25.57.03a.733.733,0,0,0,.624-.622c.169-1.1-.114-2.585,0-3.729l-.694-.7a9.608,9.608,0,0,1-9.645-.116,10.346,10.346,0,0,1-3.576-3.754l-9.669-.017c-.982-.15-.616-1.46,0-1.46h9.062A9.559,9.559,0,0,1,25.91,14.257,10.07,10.07,0,0,1,28.9,15.628V9.4h-5.32a2.4,2.4,0,0,1-1.871-1.868V2.224ZM27.8,7.936,23.177,3.322V7.387a1.008,1.008,0,0,0,.55.549H27.8Zm-5,7.492A8.066,8.066,0,1,0,30.325,27.7,8.086,8.086,0,0,0,22.8,15.428Zm6.692,15.359.034.147L35.214,36.6a1.021,1.021,0,0,0,1.391-1.462L30.956,29.5c-.1-.086-.117-.017-.182.043-.4.37-.764,1.009-1.288,1.243Z" transform="translate(-624 3097)" fill="#6d8fb0"/><path d="M158.144,150.419a8.066,8.066,0,1,1-6.652,11.43A8.068,8.068,0,0,1,158.144,150.419Zm.073,1.611a6.458,6.458,0,1,0,6.339,9.4A6.461,6.461,0,0,0,158.217,152.03Z" transform="translate(-759.348 2962.009)" fill="#fefefe"/><path d="M173.136,166.9a6.458,6.458,0,1,1-4.565,10.3A6.466,6.466,0,0,1,173.136,166.9Zm.073,1.464c-6.842.7-5.24,11.366,1.676,9.8C180.838,176.824,179.432,167.735,173.209,168.368Z" transform="translate(-774.267 2947.135)" fill="#6d8fb0"/><path d="M187.335,181.819c6.223-.633,7.629,8.456,1.676,9.8C182.095,193.186,180.493,182.516,187.335,181.819Zm.362,1.681a.735.735,0,0,0,0,1.43c.157.036.329,0,.479.034a1.855,1.855,0,0,1,1.337,1.008c.248.543.055,1.581.953,1.543,1.327-.056.444-2.212-.037-2.824A3.323,3.323,0,0,0,187.7,183.5Z" transform="translate(-788.393 2933.684)" fill="#cde3f7"/><path d="M226.355,199.015a3.327,3.327,0,0,1,2.734,1.193c.481.612,1.363,2.768.037,2.824-.9.037-.7-1-.953-1.543a1.855,1.855,0,0,0-1.337-1.008c-.151-.039-.324,0-.479-.034a.735.735,0,0,1,0-1.43Z" transform="translate(-827.051 2918.169)" fill="#6d8fb0"/></g></g></svg>